<svg xmlns="http://www.w3.org/2000/svg" width="240" height="240" viewBox="0 0 240 240"><style>.a{fill:#333;opacity:0.7;}</style><path d="M146.5 10c0-3.4 13.5-3.4 13.5 0 0 98.7 0 98.7 0 98.7 0 10.4-1.2 18.6-3.5 24.7 -2.3 6.1-6.5 11.1-12.5 14.9 -6 3.8-14 5.7-23.8 5.7 -9.5 0-17.3-1.7-23.4-5 -6.1-3.3-10.4-8.1-13-14.4C81.3 128.2 80 119.6 80 108.7c0 0 0 0.8 0-98.7 0-3.4 13.5-3.4 13.5 0 0 98.6 0 98.6 0 98.6 0 9 0.8 15.6 2.5 19.8s4.5 7.5 8.5 9.8c4 2.3 8.9 3.4 14.7 3.4 9.9 0 17-2.3 21.2-6.8 4.2-4.5 6.3-13.3 6.3-26.2C146.5 108.6 146.5 108.6 146.5 10z"/><path d="M113.2 230c0-80 0-80 0-80h13.6c0 0 0 0 0 80C126.8 233.4 113.2 233.4 113.2 230z"/><circle cx="80" cy="180" r="12" class="a"/><circle cx="120" cy="108" r="10" class="a"/><circle cx="160" cy="180" r="12" class="a"/></svg>
