<svg version="1.1" id="Layer_1" xmlns="http://www.w3.org/2000/svg" x="0" y="0" viewBox="0 0 116.2 74.7" style="enable-background:new 0 0 116.2 74.7" xml:space="preserve"><style>.st1,.st2{fill:#fff}.st2{fill-rule:evenodd;clip-rule:evenodd}.st3{fill:#1a1a18}</style><path style="fill-rule:evenodd;clip-rule:evenodd" d="M1.2.7h113.9v73H1.2z"/><path class="st1" d="M114.6 1.2v71.9H1.8V1.2h112.8m1.1-1.1H.7v74.1H115.7V.1z"/><path class="st1" d="M20.6 58.5c-.4.9-1.6 3.3-4.7 3.3-2.6 0-5.1-1.7-5.1-5.8 0-2.4 1.4-5.6 5.1-5.6 2.8 0 3.9 1.8 4.4 3.3l-2 .5c-.1-1.2-1.1-2-2.3-2-1.8 0-3 1.3-3 3.8 0 1.5.6 3.8 3 3.8 1.4 0 2.3-1.1 2.6-2.2l2 .9zM27.1 50.4c3.3 0 5.2 2.7 5.2 5.6 0 2.5-1.3 5.8-5.2 5.8-3.2 0-5.2-2.6-5.2-5.7s2-5.7 5.2-5.7zm0 9.5c1.6 0 3.1-1.2 3.1-3.7 0-1.9-1-3.9-3.2-3.9-1.8 0-3.1 1.4-3.1 3.8.1 1.7.9 3.8 3.2 3.8zM42.2 61.5c0-.3.2-8.9.2-8.9l-2.3 8.9h-1.8L36 52.6s.2 8.5.2 8.9h-2V50.7h2.9l2.1 8 2.1-8h2.9v10.8h-2zM51.5 50.7c2.2 0 3.8 1.4 3.8 3.6 0 2-1.1 3.5-4 3.5h-2.1v3.7h-2V50.7h4.3zm-2.2 5.5h1.8c1.4 0 2.2-.7 2.2-1.9 0-1.7-1.4-1.8-2.4-1.8h-1.5v3.7zM62.9 61.5l-.6-2.1h-4.1l-.6 2.1h-2.2L59 50.7h2.3L65 61.5h-2.1zm-2.7-8.8-1.5 5h3l-1.5-5zM69.2 52.5v9h-2v-9h-2.9v-1.8h8v1.8h-3.1zM73.8 61.5V50.7h2v10.8h-2zM83.7 50.7c2.3 0 3.3 1.3 3.3 2.7 0 .9-.5 2.1-1.8 2.2 1 .2 2.3 1 2.3 2.9 0 1.5-.9 3.1-3.6 3.1h-5V50.7h4.8zm-2.8 4.4h2c.9 0 2-.3 2-1.4 0-1.1-1.1-1.3-1.9-1.3h-2.1v2.7zm0 4.7h2.7c1.4 0 1.9-.7 1.9-1.5 0-1.5-1.5-1.7-2.3-1.7h-2.3v3.2zM90.1 61.5V50.7h2v9h4.3v1.8h-6.3zM97.7 61.5V50.7h7.7v1.8h-5.7V55h5.2v1.7h-5.2v2.9h6.1v1.8h-8.1z"/><path class="st2" d="M69.6 19h36.2l.1 6.4h-1.7c-.6-2.2-2.2-3.7-4.9-4.4-1.5-.4-3.8-.7-6.8-.7v16c0 1.1.4 1.6 1.1 1.9.8.4 2.4.4 4.8.4V40H77.1v-1.4c2.3 0 3.9-.2 4.7-.5.8-.4 1.2-.7 1.2-1.8v-16c-2.9 0-5.2.3-6.7.7-2.9.8-4.5 2.3-4.9 4.4h-1.7l-.1-6.4z"/><g><path class="st2" d="m41.2 29.8 3.3.4.1.1c1.3 2.7 3.4 4.8 6.3 6 2.9 1.3 6.3 1.9 10.1 1.9 3.7 0 6.3-.4 7.8-1.3 1.5-.8 2.2-1.7 2.2-2.6 0-1-.8-1.9-2.3-2.5-1.1-.5-3.3-1.1-6.5-1.8l-5.3-1.2c-5.2-1.2-9-2.4-11.1-3.6-2.2-1.2-3.3-2.8-3.3-4.6 0-1.9 1.5-3.7 4.4-5.4 2.9-1.6 7.3-2.4 13.2-2.4 3 0 5.9.2 8.7.6 1.8.3 4.3.6 4.8.6 1.1 0 1.5-.2 1.7-.3.3-.2.6-.5.8-.9l.1-.1H79v8.7h-3l-.1-.1c-1.1-1.9-3-3.5-5.7-4.8-2.7-1.4-6-2-9.8-2-2.7 0-4.9.3-6.4 1-1.5.6-2.2 1.4-2.2 2.3 0 1.1.7 1.9 2.1 2.5 1.5.6 4.8 1.5 9.8 2.6l6.1 1.4c2.7.6 4.9 1.3 6.5 2.1 3.1 1.5 4.7 3.3 4.7 5.4 0 2-1.7 3.9-5 5.6-3.2 1.7-8.5 2.6-15.6 2.6-1.6 0-3.3-.1-5-.2-1.7-.1-3.4-.4-5-.6l-1.6-.3c-.4 0-.7-.1-1-.1-.3 0-.6-.1-.9-.1-.8 0-1.3.1-1.6.3-.3.2-.5.5-.8.9l-.1.1h-3.2V29.8z"/><path class="st3" d="M78.4 13.1v8.2h-2.3c-1.1-1.9-3-3.5-5.7-4.9-2.7-1.4-6-2.1-9.9-2.1-2.8 0-4.9.3-6.5 1-1.6.7-2.4 1.5-2.4 2.5 0 1.2.8 2.1 2.3 2.7 1.5.6 4.8 1.5 9.9 2.6l6.1 1.4c2.7.6 4.9 1.3 6.5 2.1 3 1.4 4.5 3.2 4.5 5.2 0 1.9-1.6 3.7-4.9 5.4-3.2 1.7-8.4 2.5-15.5 2.5-1.6 0-3.3-.1-5-.2-1.7-.1-3.3-.3-5-.6l-1.6-.3c-.4 0-.7-.1-1.1-.1-.3 0-.6-.1-.9-.1-.8 0-1.4.1-1.7.3-.3.2-.6.5-.8 1h-2.9V30l2.9.4c1.3 2.8 3.4 4.9 6.4 6.1 3 1.3 6.3 1.9 10.1 1.9 3.7 0 6.3-.4 7.9-1.3 1.6-.9 2.3-1.8 2.3-2.8 0-1.1-.8-2-2.5-2.8-1.1-.5-3.3-1.1-6.5-1.8l-5.3-1.2c-5.2-1.2-8.9-2.4-11.1-3.6-2.1-1.2-3.2-2.6-3.2-4.4 0-1.8 1.4-3.6 4.2-5.2 2.9-1.6 7.2-2.4 13.1-2.4 3 0 5.9.2 8.6.6 2.8.4 4.4.6 4.8.6.9 0 1.5-.1 1.9-.3.3-.2.6-.6.8-1h2.5m.4-.2H75.7l-.1.2c-.2.3-.4.6-.7.8-.1.1-.5.3-1.6.3-.5 0-3.7-.5-4.7-.6-2.8-.4-5.7-.6-8.7-.6-5.9 0-10.4.8-13.3 2.5-3 1.7-4.5 3.5-4.5 5.6 0 1.9 1.2 3.5 3.5 4.8 2.2 1.2 5.9 2.4 11.2 3.6l5.3 1.2c3.2.7 5.4 1.3 6.5 1.8 1.4.6 2.2 1.4 2.2 2.3 0 .8-.7 1.6-2.1 2.4-1.5.8-4.1 1.2-7.7 1.2-3.7 0-7.1-.6-10-1.9-3-1.2-5-3.2-6.3-5.9l-.1-.3h-.3l-2.9-.4H41v10.7H44.7l.1-.2c.2-.4.4-.6.7-.8.1-.1.5-.3 1.5-.3.2 0 .5 0 .8.1.3 0 .7.1 1.1.1l1.6.3c1.6.3 3.3.5 5 .6 1.7.1 3.4.2 5 .2 7.2 0 12.5-.9 15.8-2.6 3.4-1.8 5.1-3.7 5.1-5.8 0-2.2-1.6-4.1-4.8-5.6-1.6-.8-3.9-1.5-6.6-2.1l-6.1-1.4c-5-1.1-8.3-2-9.8-2.6-1.3-.5-2-1.3-2-2.2 0-.8.7-1.5 2.1-2.1 1.5-.7 3.7-1 6.4-1 3.8 0 7.1.7 9.7 2 2.7 1.3 4.5 2.9 5.6 4.7l.1.2H79.1v-9.2h-.3z"/></g><g><path class="st2" d="M28.6 40.6 13.5 22.9c-.6-.7-1.2-1.2-1.8-1.5-.6-.3-2.3-.5-3.8-.5h-.2v-1.4h21V21h-.2c-2.1.1-3.4.2-4.1.3-.7.1-.7.4-.7.7v.4c0 .1.1.2.2.3l8.8 10.8h.1l7.6-9.9c.2-.2.3-.4.4-.6.2-.3.3-.6.3-.8 0-.3-.1-.7-.8-.8-.6-.1-2-.2-4-.3h-.2v-1.5h13.8V21h-.2c-1.5.1-3.4.3-4 .6-.7.3-1.3.9-2 1.7L30.4 40.6h-1.8z"/><path class="st3" d="M49.8 19.7v1c-1.4.1-3.4.3-4.1.6-.7.3-1.4.9-2.1 1.8L30.3 40.4h-1.6L13.6 22.7c-.6-.7-1.2-1.2-1.9-1.5-.6-.3-2.5-.5-3.9-.6v-1h20.5v1c-2.1.1-3.5.2-4.1.3-.6.1-.9.4-.9.9 0 .1 0 .3.1.4.1.1.2.3.3.4l8.9 10.9h.4l7.7-9.9c.2-.2.3-.4.5-.7.2-.4.3-.7.3-.9 0-.6-.3-.9-1-1-.6-.1-2-.3-4-.3v-1h13.3m.5-.5H36v2h.5c2 .1 3.3.2 3.9.3.6.1.6.3.6.5 0 .1 0 .3-.3.7-.1.2-.3.4-.4.6L32.8 33l-8.7-10.6c-.1-.1-.2-.2-.2-.3v-.3c0-.1 0-.3.5-.4.6-.1 1.9-.2 4-.3h.5v-2H7.4V21h.4c1.7.1 3.2.3 3.7.5.6.3 1.2.8 1.7 1.4l15.1 17.6.1.2h2l.1-.2L44 23.3c.6-.8 1.3-1.3 1.9-1.6.5-.3 2.1-.5 3.9-.6h.4v-1.9h.1z"/></g><g><path class="st1" d="M105.6 14.9c-2.4 0-4.4-2-4.4-4.4s2-4.4 4.4-4.4c2.4 0 4.4 2 4.4 4.3.1 2.5-1.8 4.5-4.4 4.5zm0-8.5c-2.2 0-4 1.8-4 4s1.7 4 4 4c2.2 0 4-1.8 4-3.9 0-2.3-1.7-4.1-4-4.1zm-.1 1.2c1.4 0 2 .5 2 1.6 0 .9-.4 1.3-1.2 1.6l1.3 2.4h-1l-1.2-2.3h-.7v2.3h-.9V7.6h1.7zm-.7 2.5h.7c.8 0 1.1-.3 1.1-.9 0-.6-.4-.9-1.2-.9h-.6v1.8z"/></g></svg>